<?xml version="1.0" encoding="UTF-8" standalone="no"?>
<!-- Created with Inkscape (http://www.inkscape.org/) -->

<svg
   width="53.913788mm"
   height="53.913788mm"
   viewBox="0 0 53.913788 53.913788"
   version="1.1"
   id="svg834"
   inkscape:version="1.4.2 (ebf0e940d0, 2025-05-08)"
   sodipodi:docname="lbmpy-logo.svg"
   inkscape:export-filename="/local/bauer/code/lbmpy/lbmpy/doc/img/logo.png"
   inkscape:export-xdpi="70.669998"
   inkscape:export-ydpi="70.669998"
   xmlns:inkscape="http://www.inkscape.org/namespaces/inkscape"
   xmlns:sodipodi="http://sodipodi.sourceforge.net/DTD/sodipodi-0.dtd"
   xmlns="http://www.w3.org/2000/svg"
   xmlns:svg="http://www.w3.org/2000/svg"
   xmlns:rdf="http://www.w3.org/1999/02/22-rdf-syntax-ns#"
   xmlns:cc="http://creativecommons.org/ns#"
   xmlns:dc="http://purl.org/dc/elements/1.1/">
  <defs
     id="defs828">
    <marker
       inkscape:stockid="Arrow1Send"
       orient="auto"
       refY="0"
       refX="0"
       id="Arrow1Send"
       style="overflow:visible"
       inkscape:isstock="true">
      <path
         id="path1421"
         d="M 0,0 5,-5 -12.5,0 5,5 Z"
         style="fill:#dddddd;fill-opacity:1;fill-rule:evenodd;stroke:#dddddd;stroke-width:1pt;stroke-opacity:1"
         transform="matrix(-0.2,0,0,-0.2,-1.2,0)"
         inkscape:connector-curvature="0" />
    </marker>
    <inkscape:path-effect
       effect="spiro"
       id="path-effect1404"
       is_visible="true"
       lpeversion="0" />
    <marker
       inkscape:stockid="Arrow1Send"
       orient="auto"
       refY="0"
       refX="0"
       id="Arrow1Send-8"
       style="overflow:visible"
       inkscape:isstock="true">
      <path
         inkscape:connector-curvature="0"
         id="path1421-2"
         d="M 0,0 5,-5 -12.5,0 5,5 Z"
         style="fill:#dddddd;fill-opacity:1;fill-rule:evenodd;stroke:#dddddd;stroke-width:1pt;stroke-opacity:1"
         transform="matrix(-0.2,0,0,-0.2,-1.2,0)" />
    </marker>
    <inkscape:path-effect
       effect="spiro"
       id="path-effect1404-7"
       is_visible="true"
       lpeversion="0" />
    <marker
       inkscape:stockid="Arrow1Send"
       orient="auto"
       refY="0"
       refX="0"
       id="Arrow1Send-8-6"
       style="overflow:visible"
       inkscape:isstock="true">
      <path
         inkscape:connector-curvature="0"
         id="path1421-2-7"
         d="M 0,0 5,-5 -12.5,0 5,5 Z"
         style="fill:#dddddd;fill-opacity:1;fill-rule:evenodd;stroke:#dddddd;stroke-width:1pt;stroke-opacity:1"
         transform="matrix(-0.2,0,0,-0.2,-1.2,0)" />
    </marker>
    <inkscape:path-effect
       effect="spiro"
       id="path-effect1404-7-7"
       is_visible="true"
       lpeversion="0" />
    <marker
       inkscape:stockid="Arrow1Send"
       orient="auto"
       refY="0"
       refX="0"
       id="Arrow1Send-8-6-9"
       style="overflow:visible"
       inkscape:isstock="true">
      <path
         inkscape:connector-curvature="0"
         id="path1421-2-7-4"
         d="M 0,0 5,-5 -12.5,0 5,5 Z"
         style="fill:#dddddd;fill-opacity:1;fill-rule:evenodd;stroke:#dddddd;stroke-width:1pt;stroke-opacity:1"
         transform="matrix(-0.2,0,0,-0.2,-1.2,0)" />
    </marker>
    <inkscape:path-effect
       effect="spiro"
       id="path-effect1404-7-7-5"
       is_visible="true"
       lpeversion="0" />
    <marker
       inkscape:stockid="Arrow1Send"
       orient="auto"
       refY="0"
       refX="0"
       id="Arrow1Send-8-2"
       style="overflow:visible"
       inkscape:isstock="true">
      <path
         inkscape:connector-curvature="0"
         id="path1421-2-2"
         d="M 0,0 5,-5 -12.5,0 5,5 Z"
         style="fill:#dddddd;fill-opacity:1;fill-rule:evenodd;stroke:#dddddd;stroke-width:1pt;stroke-opacity:1"
         transform="matrix(-0.2,0,0,-0.2,-1.2,0)" />
    </marker>
    <inkscape:path-effect
       effect="spiro"
       id="path-effect1404-7-3"
       is_visible="true"
       lpeversion="0" />
    <marker
       inkscape:stockid="Arrow1Send"
       orient="auto"
       refY="0"
       refX="0"
       id="Arrow1Send-8-2-6"
       style="overflow:visible"
       inkscape:isstock="true">
      <path
         inkscape:connector-curvature="0"
         id="path1421-2-2-5"
         d="M 0,0 5,-5 -12.5,0 5,5 Z"
         style="fill:#dddddd;fill-opacity:1;fill-rule:evenodd;stroke:#dddddd;stroke-width:1pt;stroke-opacity:1"
         transform="matrix(-0.2,0,0,-0.2,-1.2,0)" />
    </marker>
    <inkscape:path-effect
       effect="spiro"
       id="path-effect1404-7-3-7"
       is_visible="true"
       lpeversion="0" />
    <marker
       inkscape:stockid="Arrow1Send"
       orient="auto"
       refY="0"
       refX="0"
       id="Arrow1Send-8-2-6-3"
       style="overflow:visible"
       inkscape:isstock="true">
      <path
         inkscape:connector-curvature="0"
         id="path1421-2-2-5-9"
         d="M 0,0 5,-5 -12.5,0 5,5 Z"
         style="fill:#dddddd;fill-opacity:1;fill-rule:evenodd;stroke:#dddddd;stroke-width:1pt;stroke-opacity:1"
         transform="matrix(-0.2,0,0,-0.2,-1.2,0)" />
    </marker>
    <inkscape:path-effect
       effect="spiro"
       id="path-effect1404-7-3-7-4"
       is_visible="true"
       lpeversion="0" />
    <marker
       inkscape:stockid="Arrow1Send"
       orient="auto"
       refY="0"
       refX="0"
       id="Arrow1Send-8-2-6-3-0"
       style="overflow:visible"
       inkscape:isstock="true">
      <path
         inkscape:connector-curvature="0"
         id="path1421-2-2-5-9-6"
         d="M 0,0 5,-5 -12.5,0 5,5 Z"
         style="fill:#ffffff;fill-opacity:1;fill-rule:evenodd;stroke:#c6c6c6;stroke-width:1pt;stroke-opacity:1"
         transform="matrix(-0.2,0,0,-0.2,-1.2,0)" />
    </marker>
    <inkscape:path-effect
       effect="spiro"
       id="path-effect1404-7-3-7-4-0"
       is_visible="true"
       lpeversion="0" />
    <marker
       inkscape:stockid="Arrow1Send"
       orient="auto"
       refY="0"
       refX="0"
       id="Arrow1Send-8-2-2"
       style="overflow:visible"
       inkscape:isstock="true">
      <path
         inkscape:connector-curvature="0"
         id="path1421-2-2-8"
         d="M 0,0 5,-5 -12.5,0 5,5 Z"
         style="fill:#dddddd;fill-opacity:1;fill-rule:evenodd;stroke:#dddddd;stroke-width:1pt;stroke-opacity:1"
         transform="matrix(-0.2,0,0,-0.2,-1.2,0)" />
    </marker>
    <inkscape:path-effect
       effect="spiro"
       id="path-effect1404-7-3-4"
       is_visible="true"
       lpeversion="0" />
    <filter
       y="-0.25"
       height="1.5"
       inkscape:menu-tooltip="Darkens the edge with an inner blur and adds a flexible glow"
       inkscape:menu="Shadows and Glows"
       inkscape:label="Dark And Glow"
       style="color-interpolation-filters:sRGB"
       id="filter4608">
      <feGaussianBlur
         stdDeviation="5"
         result="result6"
         id="feGaussianBlur4610" />
      <feComposite
         result="result8"
         in="SourceGraphic"
         operator="atop"
         in2="result6"
         id="feComposite4612" />
      <feComposite
         result="result9"
         operator="over"
         in2="SourceAlpha"
         in="result8"
         id="feComposite4614" />
      <feColorMatrix
         values="1 0 0 0 0 0 1 0 0 0 0 0 1 0 0 0 0 0 1 0 "
         result="result10"
         id="feColorMatrix4616" />
      <feBlend
         in="result10"
         mode="normal"
         in2="result6"
         id="feBlend4618" />
    </filter>
    <filter
       y="-0.25"
       height="1.5"
       inkscape:menu-tooltip="Darkens the edge with an inner blur and adds a flexible glow"
       inkscape:menu="Shadows and Glows"
       inkscape:label="Dark And Glow"
       style="color-interpolation-filters:sRGB"
       id="filter4632">
      <feGaussianBlur
         stdDeviation="5"
         result="result6"
         id="feGaussianBlur4634" />
      <feComposite
         result="result8"
         in="SourceGraphic"
         operator="atop"
         in2="result6"
         id="feComposite4636" />
      <feComposite
         result="result9"
         operator="over"
         in2="SourceAlpha"
         in="result8"
         id="feComposite4638" />
      <feColorMatrix
         values="1 0 0 0 0 0 1 0 0 0 0 0 1 0 0 0 0 0 1 0 "
         result="result10"
         id="feColorMatrix4640" />
      <feBlend
         in="result10"
         mode="normal"
         in2="result6"
         id="feBlend4642" />
    </filter>
    <filter
       y="-0.25"
       height="1.5"
       inkscape:menu-tooltip="Darkens the edge with an inner blur and adds a flexible glow"
       inkscape:menu="Shadows and Glows"
       inkscape:label="Dark And Glow"
       style="color-interpolation-filters:sRGB"
       id="filter4620">
      <feGaussianBlur
         stdDeviation="5"
         result="result6"
         id="feGaussianBlur4622" />
      <feComposite
         result="result8"
         in="SourceGraphic"
         operator="atop"
         in2="result6"
         id="feComposite4624" />
      <feComposite
         result="result9"
         operator="over"
         in2="SourceAlpha"
         in="result8"
         id="feComposite4626" />
      <feColorMatrix
         values="1 0 0 0 0 0 1 0 0 0 0 0 1 0 0 0 0 0 1 0 "
         result="result10"
         id="feColorMatrix4628" />
      <feBlend
         in="result10"
         mode="normal"
         in2="result6"
         id="feBlend4630" />
    </filter>
    <filter
       y="-0.25"
       height="1.5"
       inkscape:menu-tooltip="Darkens the edge with an inner blur and adds a flexible glow"
       inkscape:menu="Shadows and Glows"
       inkscape:label="Dark And Glow"
       style="color-interpolation-filters:sRGB"
       id="filter4596">
      <feGaussianBlur
         stdDeviation="5"
         result="result6"
         id="feGaussianBlur4598" />
      <feComposite
         result="result8"
         in="SourceGraphic"
         operator="atop"
         in2="result6"
         id="feComposite4600" />
      <feComposite
         result="result9"
         operator="over"
         in2="SourceAlpha"
         in="result8"
         id="feComposite4602" />
      <feColorMatrix
         values="1 0 0 0 0 0 1 0 0 0 0 0 1 0 0 0 0 0 1 0 "
         result="result10"
         id="feColorMatrix4604" />
      <feBlend
         in="result10"
         mode="normal"
         in2="result6"
         id="feBlend4606" />
    </filter>
    <inkscape:path-effect
       effect="spiro"
       id="path-effect4188-5"
       is_visible="true"
       lpeversion="0" />
    <inkscape:path-effect
       effect="spiro"
       id="path-effect4188"
       is_visible="true"
       lpeversion="0" />
    <filter
       y="-0.25"
       height="1.5"
       inkscape:menu-tooltip="Darkens the edge with an inner blur and adds a flexible glow"
       inkscape:menu="Shadows and Glows"
       inkscape:label="Dark And Glow"
       style="color-interpolation-filters:sRGB"
       id="filter4608-0">
      <feGaussianBlur
         stdDeviation="5"
         result="result6"
         id="feGaussianBlur4610-2" />
      <feComposite
         result="result8"
         in="SourceGraphic"
         operator="atop"
         in2="result6"
         id="feComposite4612-5" />
      <feComposite
         result="result9"
         operator="over"
         in2="SourceAlpha"
         in="result8"
         id="feComposite4614-7" />
      <feColorMatrix
         values="1 0 0 0 0 0 1 0 0 0 0 0 1 0 0 0 0 0 1 0 "
         result="result10"
         id="feColorMatrix4616-6" />
      <feBlend
         in="result10"
         mode="normal"
         in2="result6"
         id="feBlend4618-9" />
    </filter>
    <filter
       y="-0.25"
       height="1.5"
       inkscape:menu-tooltip="Darkens the edge with an inner blur and adds a flexible glow"
       inkscape:menu="Shadows and Glows"
       inkscape:label="Dark And Glow"
       style="color-interpolation-filters:sRGB"
       id="filter4632-1">
      <feGaussianBlur
         stdDeviation="5"
         result="result6"
         id="feGaussianBlur4634-9" />
      <feComposite
         result="result8"
         in="SourceGraphic"
         operator="atop"
         in2="result6"
         id="feComposite4636-8" />
      <feComposite
         result="result9"
         operator="over"
         in2="SourceAlpha"
         in="result8"
         id="feComposite4638-7" />
      <feColorMatrix
         values="1 0 0 0 0 0 1 0 0 0 0 0 1 0 0 0 0 0 1 0 "
         result="result10"
         id="feColorMatrix4640-6" />
      <feBlend
         in="result10"
         mode="normal"
         in2="result6"
         id="feBlend4642-5" />
    </filter>
    <filter
       y="-0.25"
       height="1.5"
       inkscape:menu-tooltip="Darkens the edge with an inner blur and adds a flexible glow"
       inkscape:menu="Shadows and Glows"
       inkscape:label="Dark And Glow"
       style="color-interpolation-filters:sRGB"
       id="filter4620-1">
      <feGaussianBlur
         stdDeviation="5"
         result="result6"
         id="feGaussianBlur4622-1" />
      <feComposite
         result="result8"
         in="SourceGraphic"
         operator="atop"
         in2="result6"
         id="feComposite4624-4" />
      <feComposite
         result="result9"
         operator="over"
         in2="SourceAlpha"
         in="result8"
         id="feComposite4626-8" />
      <feColorMatrix
         values="1 0 0 0 0 0 1 0 0 0 0 0 1 0 0 0 0 0 1 0 "
         result="result10"
         id="feColorMatrix4628-5" />
      <feBlend
         in="result10"
         mode="normal"
         in2="result6"
         id="feBlend4630-7" />
    </filter>
    <filter
       y="-0.25"
       height="1.5"
       inkscape:menu-tooltip="Darkens the edge with an inner blur and adds a flexible glow"
       inkscape:menu="Shadows and Glows"
       inkscape:label="Dark And Glow"
       style="color-interpolation-filters:sRGB"
       id="filter4596-6">
      <feGaussianBlur
         stdDeviation="5"
         result="result6"
         id="feGaussianBlur4598-6" />
      <feComposite
         result="result8"
         in="SourceGraphic"
         operator="atop"
         in2="result6"
         id="feComposite4600-9" />
      <feComposite
         result="result9"
         operator="over"
         in2="SourceAlpha"
         in="result8"
         id="feComposite4602-1" />
      <feColorMatrix
         values="1 0 0 0 0 0 1 0 0 0 0 0 1 0 0 0 0 0 1 0 "
         result="result10"
         id="feColorMatrix4604-4" />
      <feBlend
         in="result10"
         mode="normal"
         in2="result6"
         id="feBlend4606-3" />
    </filter>
    <inkscape:path-effect
       effect="spiro"
       id="path-effect4188-5-6"
       is_visible="true"
       lpeversion="0" />
    <inkscape:path-effect
       effect="spiro"
       id="path-effect4188-7"
       is_visible="true"
       lpeversion="0" />
    <marker
       inkscape:stockid="Arrow1Send"
       orient="auto"
       refY="0"
       refX="0"
       id="Arrow1Send-3"
       style="overflow:visible"
       inkscape:isstock="true">
      <path
         id="path1421-6"
         d="M 0,0 5,-5 -12.5,0 5,5 Z"
         style="fill:#dddddd;fill-opacity:1;fill-rule:evenodd;stroke:#dddddd;stroke-width:1pt;stroke-opacity:1"
         transform="matrix(-0.2,0,0,-0.2,-1.2,0)"
         inkscape:connector-curvature="0" />
    </marker>
    <inkscape:path-effect
       effect="spiro"
       id="path-effect1404-75"
       is_visible="true"
       lpeversion="0" />
    <marker
       inkscape:stockid="Arrow1Send"
       orient="auto"
       refY="0"
       refX="0"
       id="Arrow1Send-8-3"
       style="overflow:visible"
       inkscape:isstock="true">
      <path
         inkscape:connector-curvature="0"
         id="path1421-2-5"
         d="M 0,0 5,-5 -12.5,0 5,5 Z"
         style="fill:#dddddd;fill-opacity:1;fill-rule:evenodd;stroke:#dddddd;stroke-width:1pt;stroke-opacity:1"
         transform="matrix(-0.2,0,0,-0.2,-1.2,0)" />
    </marker>
    <inkscape:path-effect
       effect="spiro"
       id="path-effect1404-7-6"
       is_visible="true"
       lpeversion="0" />
    <marker
       inkscape:stockid="Arrow1Send"
       orient="auto"
       refY="0"
       refX="0"
       id="Arrow1Send-8-6-2"
       style="overflow:visible"
       inkscape:isstock="true">
      <path
         inkscape:connector-curvature="0"
         id="path1421-2-7-9"
         d="M 0,0 5,-5 -12.5,0 5,5 Z"
         style="fill:#dddddd;fill-opacity:1;fill-rule:evenodd;stroke:#dddddd;stroke-width:1pt;stroke-opacity:1"
         transform="matrix(-0.2,0,0,-0.2,-1.2,0)" />
    </marker>
    <inkscape:path-effect
       effect="spiro"
       id="path-effect1404-7-7-1"
       is_visible="true"
       lpeversion="0" />
    <marker
       inkscape:stockid="Arrow1Send"
       orient="auto"
       refY="0"
       refX="0"
       id="Arrow1Send-8-2-27"
       style="overflow:visible"
       inkscape:isstock="true">
      <path
         inkscape:connector-curvature="0"
         id="path1421-2-2-0"
         d="M 0,0 5,-5 -12.5,0 5,5 Z"
         style="fill:#dddddd;fill-opacity:1;fill-rule:evenodd;stroke:#dddddd;stroke-width:1pt;stroke-opacity:1"
         transform="matrix(-0.2,0,0,-0.2,-1.2,0)" />
    </marker>
    <inkscape:path-effect
       effect="spiro"
       id="path-effect1404-7-3-9"
       is_visible="true"
       lpeversion="0" />
    <marker
       inkscape:stockid="Arrow1Send"
       orient="auto"
       refY="0"
       refX="0"
       id="Arrow1Send-8-2-6-36"
       style="overflow:visible"
       inkscape:isstock="true">
      <path
         inkscape:connector-curvature="0"
         id="path1421-2-2-5-0"
         d="M 0,0 5,-5 -12.5,0 5,5 Z"
         style="fill:#dddddd;fill-opacity:1;fill-rule:evenodd;stroke:#dddddd;stroke-width:1pt;stroke-opacity:1"
         transform="matrix(-0.2,0,0,-0.2,-1.2,0)" />
    </marker>
    <inkscape:path-effect
       effect="spiro"
       id="path-effect1404-7-3-7-6"
       is_visible="true"
       lpeversion="0" />
    <marker
       inkscape:stockid="Arrow1Send"
       orient="auto"
       refY="0"
       refX="0"
       id="Arrow1Send-8-2-6-3-2"
       style="overflow:visible"
       inkscape:isstock="true">
      <path
         inkscape:connector-curvature="0"
         id="path1421-2-2-5-9-61"
         d="M 0,0 5,-5 -12.5,0 5,5 Z"
         style="fill:#dddddd;fill-opacity:1;fill-rule:evenodd;stroke:#dddddd;stroke-width:1pt;stroke-opacity:1"
         transform="matrix(-0.2,0,0,-0.2,-1.2,0)" />
    </marker>
    <inkscape:path-effect
       effect="spiro"
       id="path-effect1404-7-3-7-4-8"
       is_visible="true"
       lpeversion="0" />
    <marker
       inkscape:stockid="Arrow1Send"
       orient="auto"
       refY="0"
       refX="0"
       id="Arrow1Send-8-2-2-7"
       style="overflow:visible"
       inkscape:isstock="true">
      <path
         inkscape:connector-curvature="0"
         id="path1421-2-2-8-9"
         d="M 0,0 5,-5 -12.5,0 5,5 Z"
         style="fill:#dddddd;fill-opacity:1;fill-rule:evenodd;stroke:#dddddd;stroke-width:1pt;stroke-opacity:1"
         transform="matrix(-0.2,0,0,-0.2,-1.2,0)" />
    </marker>
    <inkscape:path-effect
       effect="spiro"
       id="path-effect1404-7-3-4-2"
       is_visible="true"
       lpeversion="0" />
    <marker
       inkscape:stockid="Arrow1Send"
       orient="auto"
       refY="0"
       refX="0"
       id="Arrow1Send-8-6-9-0"
       style="overflow:visible"
       inkscape:isstock="true">
      <path
         inkscape:connector-curvature="0"
         id="path1421-2-7-4-2"
         d="M 0,0 5,-5 -12.5,0 5,5 Z"
         style="fill:#dddddd;fill-opacity:1;fill-rule:evenodd;stroke:#dddddd;stroke-width:1pt;stroke-opacity:1"
         transform="matrix(-0.2,0,0,-0.2,-1.2,0)" />
    </marker>
    <inkscape:path-effect
       effect="spiro"
       id="path-effect1404-7-7-5-3"
       is_visible="true"
       lpeversion="0" />
  </defs>
  <sodipodi:namedview
     id="base"
     pagecolor="#ffffff"
     bordercolor="#666666"
     borderopacity="1.0"
     inkscape:pageopacity="0.0"
     inkscape:pageshadow="2"
     inkscape:zoom="1.4"
     inkscape:cx="158.57143"
     inkscape:cy="78.571429"
     inkscape:document-units="mm"
     inkscape:current-layer="layer1"
     showgrid="false"
     inkscape:window-width="1664"
     inkscape:window-height="1113"
     inkscape:window-x="0"
     inkscape:window-y="0"
     inkscape:window-maximized="0"
     fit-margin-top="0"
     fit-margin-left="0"
     fit-margin-right="0"
     fit-margin-bottom="0"
     inkscape:showpageshadow="0"
     inkscape:pagecheckerboard="1"
     inkscape:deskcolor="#d1d1d1">
    <inkscape:grid
       type="xygrid"
       id="grid1886"
       originx="-9.840785"
       originy="-227.28709"
       spacingy="1"
       spacingx="1"
       units="mm" />
  </sodipodi:namedview>
  <metadata
     id="metadata831">
    <rdf:RDF>
      <cc:Work
         rdf:about="">
        <dc:format>image/svg+xml</dc:format>
        <dc:type
           rdf:resource="http://purl.org/dc/dcmitype/StillImage" />
      </cc:Work>
    </rdf:RDF>
  </metadata>
  <g
     inkscape:label="Layer 1"
     inkscape:groupmode="layer"
     id="layer1"
     transform="translate(-9.8407853,-15.799119)">
    <rect
       style="opacity:1;fill:#646ecb;fill-opacity:1;stroke:#d2d2d2;stroke-width:0.509157;stroke-miterlimit:4;stroke-dasharray:none;stroke-dashoffset:0;stroke-opacity:1"
       id="rect1396"
       width="53.404633"
       height="53.404633"
       x="10.095364"
       y="16.053698"
       ry="3.0735996"
       inkscape:export-xdpi="188.45"
       inkscape:export-ydpi="188.45" />
    <path
       style="font-weight:bold;font-size:16.9333px;line-height:125%;font-family:'Latin Modern Mono Light';-inkscape-font-specification:'Latin Modern Mono Light, Bold';letter-spacing:0px;word-spacing:0px;fill:#ffffff;stroke-width:0.264583px"
       d="m 21.505785,62.578241 c 0,-0.626532 -0.474132,-0.643466 -0.795865,-0.643466 h -2.015062 v -8.26345 c 0,-0.609599 -0.118533,-0.812798 -0.795865,-0.812798 h -2.607729 c -0.321732,0 -0.812798,0.01693 -0.812798,0.643465 0,0.609599 0.507999,0.626532 0.795865,0.626532 h 2.015063 v 7.806251 h -1.99813 c -0.321732,0 -0.812798,0.01693 -0.812798,0.643466 0,0.609599 0.507999,0.626532 0.795865,0.626532 h 5.435589 c 0.3048,0 0.795865,-0.01693 0.795865,-0.626532 z m 9.228643,-3.064927 c 0,-2.116663 -1.54093,-3.776126 -3.352793,-3.776126 -0.728132,0 -1.405464,0.237066 -1.964263,0.643465 v -2.709328 c 0,-0.609599 -0.118533,-0.812798 -0.795865,-0.812798 h -1.202265 c -0.321732,0 -0.812798,0.01693 -0.812798,0.643465 0,0.609599 0.507999,0.626532 0.795865,0.626532 h 0.609599 v 8.263451 c 0,0.406399 0.01693,0.812798 0.711198,0.812798 0.524933,0 0.660399,-0.237066 0.677332,-0.575732 0.643466,0.541865 1.303865,0.677332 1.79493,0.677332 1.862663,0 3.53906,-1.625597 3.53906,-3.793059 z m -1.388531,0 c 0,1.49013 -1.083731,2.523061 -2.184395,2.523061 -1.202265,0 -1.727197,-1.371597 -1.727197,-2.116662 v -1.202265 c 0,-0.914398 0.897465,-1.710263 1.862663,-1.710263 1.151464,0 2.048929,1.151465 2.048929,2.506129 z m 10.820373,3.064927 c 0,-0.558799 -0.321733,-0.643466 -0.931331,-0.643466 v -3.860792 c 0,-0.355599 -0.03387,-2.336795 -1.608664,-2.336795 -0.474132,0 -1.117598,0.186266 -1.608663,0.745065 -0.287867,-0.491066 -0.745066,-0.745065 -1.269998,-0.745065 -0.491066,0 -0.948265,0.169333 -1.337731,0.474132 -0.118533,-0.372533 -0.440265,-0.389466 -0.745065,-0.389466 h -0.524932 c -0.3048,0 -0.812799,0.03387 -0.812799,0.626532 0,0.558799 0.321733,0.643466 0.931332,0.643466 v 4.842923 c -0.609599,0 -0.931332,0.08467 -0.931332,0.643466 0,0.609599 0.524933,0.626532 0.812799,0.626532 h 1.43933 c 0.3048,0 0.761999,-0.01693 0.761999,-0.626532 0,-0.558799 -0.270933,-0.643466 -0.880532,-0.643466 v -2.827861 c 0,-1.354664 0.575732,-2.099729 1.219198,-2.099729 0.321733,0 0.474132,0.270933 0.474132,1.219198 v 3.708392 c -0.355599,0.01693 -0.677332,0.1016 -0.677332,0.643466 0,0.609599 0.474133,0.626532 0.761999,0.626532 h 1.236131 c 0.304799,0 0.761998,-0.01693 0.761998,-0.626532 0,-0.558799 -0.287866,-0.643466 -0.897465,-0.643466 v -2.827861 c 0,-1.354664 0.592666,-2.099729 1.219198,-2.099729 0.338666,0 0.474132,0.270933 0.474132,1.219198 v 3.708392 c -0.338666,0.01693 -0.660398,0.1016 -0.660398,0.643466 0,0.609599 0.474132,0.626532 0.745065,0.626532 h 1.236131 c 0.304799,0 0.812798,-0.01693 0.812798,-0.626532 z m 9.829776,-3.064927 c 0,-2.116663 -1.540931,-3.776126 -3.352794,-3.776126 -0.728132,0 -1.422397,0.237066 -1.981196,0.660398 -0.01693,-0.389466 -0.169333,-0.575732 -0.778932,-0.575732 H 42.68086 c -0.321733,0 -0.812798,0.03387 -0.812798,0.643466 0,0.609598 0.507999,0.626532 0.795865,0.626532 h 0.609598 v 8.500516 H 42.68086 c -0.321733,0 -0.812798,0.01693 -0.812798,0.643466 0,0.609598 0.507999,0.626532 0.795865,0.626532 h 2.624661 c 0.287866,0 0.795865,-0.01693 0.795865,-0.626532 0,-0.626532 -0.491065,-0.643466 -0.812798,-0.643466 h -0.592666 v -2.963327 c 0.643466,0.558799 1.286931,0.677332 1.777997,0.677332 1.862663,0 3.53906,-1.625597 3.53906,-3.793059 z m -1.388531,0 c 0,1.49013 -1.083731,2.523061 -2.184396,2.523061 -1.202264,0 -1.727196,-1.371597 -1.727196,-2.116662 v -1.202265 c 0,-0.914398 0.897465,-1.710263 1.862663,-1.710263 1.151464,0 2.048929,1.151465 2.048929,2.506129 z M 59.08922,56.46532 c 0,-0.626533 -0.474133,-0.643466 -0.795865,-0.643466 h -1.930397 c -0.304799,0 -0.795865,0.03387 -0.795865,0.626532 0,0.626532 0.474133,0.643466 0.795865,0.643466 h 0.270933 l -1.456264,4.419591 -1.676396,-4.419591 h 0.220133 c 0.304799,0 0.795865,-0.01693 0.795865,-0.626532 0,-0.626533 -0.474133,-0.643466 -0.795865,-0.643466 h -1.930397 c -0.321732,0 -0.795865,0.01693 -0.795865,0.643466 0,0.609598 0.491066,0.626532 0.795865,0.626532 H 52.2143 l 2.370662,5.977455 c -0.06773,0.186266 -0.423333,1.371597 -0.609599,1.744129 -0.338666,0.643466 -0.863598,1.032932 -1.185331,1.032932 0.01693,-0.06773 0.186266,-0.118533 0.186266,-0.372533 0,-0.491066 -0.355599,-0.846665 -0.846665,-0.846665 -0.524932,0 -0.846665,0.355599 -0.846665,0.846665 0,0.761999 0.609599,1.490131 1.490131,1.490131 1.69333,0 2.523062,-2.252129 2.590795,-2.438396 l 2.523061,-7.433718 h 0.4064 c 0.304799,0 0.795865,-0.01693 0.795865,-0.626532 z"
       id="text1392"
       aria-label="lbm py" />
    <path
       style="fill:none;fill-rule:evenodd;stroke:#dddddd;stroke-width:0.845195;stroke-linecap:butt;stroke-linejoin:miter;stroke-miterlimit:4;stroke-dasharray:none;stroke-opacity:1;marker-end:url(#Arrow1Send-8-6-9)"
       d="M 36.797679,33.475 H 23.568513"
       id="path1402-8-0-4"
       inkscape:connector-curvature="0"
       inkscape:path-effect="#path-effect1404-7-7-5"
       inkscape:original-d="m 36.797679,33.475 c -4.259608,0.03317 -8.970011,-0.03362 -13.229166,0"
       sodipodi:nodetypes="cc"
       inkscape:export-xdpi="188.45"
       inkscape:export-ydpi="188.45" />
    <g
       id="g9842"
       inkscape:export-xdpi="188.45"
       inkscape:export-ydpi="188.45">
      <path
         sodipodi:nodetypes="cc"
         inkscape:original-d="m 36.797679,33.475 c 2.23e-4,-4.259735 2.23e-4,-8.969879 0,-13.229167"
         inkscape:path-effect="#path-effect1404"
         inkscape:connector-curvature="0"
         id="path1402"
         d="M 36.797679,33.475 V 20.245833"
         style="fill:none;fill-rule:evenodd;stroke:#dddddd;stroke-width:0.845195;stroke-linecap:butt;stroke-linejoin:miter;stroke-miterlimit:4;stroke-dasharray:none;stroke-opacity:1;marker-end:url(#Arrow1Send)" />
      <path
         sodipodi:nodetypes="cc"
         inkscape:original-d="m 36.797679,33.475 c 4.259736,2.23e-4 8.969879,2.23e-4 13.229167,0"
         inkscape:path-effect="#path-effect1404-7"
         inkscape:connector-curvature="0"
         id="path1402-8"
         d="M 36.797679,33.475 H 50.026846"
         style="fill:none;fill-rule:evenodd;stroke:#dddddd;stroke-width:0.845195;stroke-linecap:butt;stroke-linejoin:miter;stroke-miterlimit:4;stroke-dasharray:none;stroke-opacity:1;marker-end:url(#Arrow1Send-8)" />
      <path
         sodipodi:nodetypes="cc"
         inkscape:original-d="m 36.797679,33.475 c 0.03317,4.259607 -0.03362,8.97001 0,13.229166"
         inkscape:path-effect="#path-effect1404-7-7"
         inkscape:connector-curvature="0"
         id="path1402-8-0"
         d="M 36.797679,33.475 V 46.704166"
         style="fill:none;fill-rule:evenodd;stroke:#dddddd;stroke-width:0.845195;stroke-linecap:butt;stroke-linejoin:miter;stroke-miterlimit:4;stroke-dasharray:none;stroke-opacity:1;marker-end:url(#Arrow1Send-8-6)" />
      <path
         sodipodi:nodetypes="cc"
         inkscape:original-d="m 36.797679,33.475 c 4.259736,2.23e-4 8.13389,-13.228083 12.393178,-13.228306"
         inkscape:path-effect="#path-effect1404-7-3"
         inkscape:connector-curvature="0"
         id="path1402-8-9"
         d="M 36.797679,33.475 49.190857,20.246694"
         style="fill:none;fill-rule:evenodd;stroke:#dddddd;stroke-width:0.845195;stroke-linecap:butt;stroke-linejoin:miter;stroke-miterlimit:4;stroke-dasharray:none;stroke-opacity:1;marker-end:url(#Arrow1Send-8-2)" />
      <path
         sodipodi:nodetypes="cc"
         inkscape:original-d="M 36.797679,33.475 C 32.537943,33.475223 27.827801,20.246056 23.568513,20.245833"
         inkscape:path-effect="#path-effect1404-7-3-7"
         inkscape:connector-curvature="0"
         id="path1402-8-9-4"
         d="M 36.797679,33.475 23.568513,20.245833"
         style="fill:none;fill-rule:evenodd;stroke:#dddddd;stroke-width:0.845195;stroke-linecap:butt;stroke-linejoin:miter;stroke-miterlimit:4;stroke-dasharray:none;stroke-opacity:1;marker-end:url(#Arrow1Send-8-2-6)" />
      <path
         sodipodi:nodetypes="cc"
         inkscape:original-d="M 36.797679,33.475 C 32.537943,33.474776 27.827801,46.703943 23.568513,46.704166"
         inkscape:path-effect="#path-effect1404-7-3-7-4"
         inkscape:connector-curvature="0"
         id="path1402-8-9-4-4"
         d="M 36.797679,33.475 23.568513,46.704166"
         style="fill:none;fill-rule:evenodd;stroke:#dddddd;stroke-width:0.845195;stroke-linecap:butt;stroke-linejoin:miter;stroke-miterlimit:4;stroke-dasharray:none;stroke-opacity:1;marker-end:url(#Arrow1Send-8-2-6-3)" />
      <path
         sodipodi:nodetypes="cc"
         inkscape:original-d="m 36.797679,33.475 c 4.259736,-2.23e-4 7.646962,13.228943 11.90625,13.229166"
         inkscape:path-effect="#path-effect1404-7-3-4"
         inkscape:connector-curvature="0"
         id="path1402-8-9-3"
         d="m 36.797679,33.475 11.90625,13.229166"
         style="fill:none;fill-rule:evenodd;stroke:#dddddd;stroke-width:0.845195;stroke-linecap:butt;stroke-linejoin:miter;stroke-miterlimit:4;stroke-dasharray:none;stroke-opacity:1;marker-end:url(#Arrow1Send-8-2-2)" />
    </g>
  </g>
</svg>
